<svg width="139" height="140" viewBox="0 0 139 140" fill="none" xmlns="http://www.w3.org/2000/svg">
<g id="expectation 1">
<path id="Vector" fill-rule="evenodd" clip-rule="evenodd" d="M27.8014 75.5771C33.6312 75.5771 38.3575 78.8996 38.3575 86.562C38.3575 94.2243 33.6312 100.436 27.8014 100.436C21.9712 100.436 17.2455 94.2243 17.2455 86.562C17.2455 78.8996 21.9715 75.5771 27.8014 75.5771ZM49.0255 77.3185C51.3219 77.3185 53.1835 79.18 53.1835 81.4765C53.1835 83.773 51.3219 85.6346 49.0255 85.6346C46.729 85.6346 44.8674 83.773 44.8674 81.4765C44.8674 79.18 46.729 77.3185 49.0255 77.3185ZM93.9336 4.99121C116.424 4.99121 134.656 23.2233 134.656 45.7139C134.656 68.2044 116.424 86.4365 93.9336 86.4365C83.3392 86.4365 73.6906 82.3898 66.4469 75.759C65.3647 76.7798 63.9061 77.4056 62.3008 77.4056C58.9626 77.4056 56.2565 74.6997 56.2565 71.3615C56.2565 69.3059 57.2829 67.4902 58.851 66.3983C55.2685 60.336 53.2109 53.2657 53.2109 45.7139C53.2109 23.2236 71.443 4.99121 93.9336 4.99121ZM89.7362 44.7354C88.0728 44.7354 86.4094 44.7354 84.7463 44.7354C84.0874 44.7354 83.5501 45.2727 83.5501 45.9316V65.1223C83.5501 65.7812 84.0874 66.3187 84.7463 66.3187H89.7362C90.3951 66.3187 90.9323 65.7812 90.9323 65.1223C90.9323 58.3352 90.9323 52.7184 90.9323 45.9316C90.9323 45.2727 90.3951 44.7354 89.7362 44.7354ZM112.162 30.0164C111.503 30.0164 110.966 30.5536 110.966 31.2128V65.1223C110.966 65.7812 111.503 66.3184 112.162 66.3184H117.152C117.811 66.3184 118.348 65.7812 118.348 65.1223V31.2128C118.348 30.5539 117.811 30.0164 117.152 30.0164H112.162ZM71.0382 52.1556C70.3793 52.1556 69.8421 52.6932 69.8421 53.3521V65.1226C69.8421 65.7814 70.3796 66.3187 71.0382 66.3187H76.0281C76.687 66.3187 77.2243 65.7814 77.2243 65.1226V53.3521C77.2243 52.6932 76.687 52.1556 76.0281 52.1556H71.0382ZM103.444 36.987H98.4541C97.7952 36.987 97.2579 37.5243 97.2579 38.1832V65.1226C97.2579 65.7814 97.7952 66.3187 98.4541 66.3187H103.444C104.103 66.3187 104.64 65.7814 104.64 65.1226V38.1832C104.64 37.5243 104.103 36.987 103.444 36.987ZM72.6883 40.6357L85.6628 29.3355L93.3705 33.1376C94.1521 33.5234 95.07 33.3247 95.6282 32.7103L106.402 21.5078L106.263 23.2105C106.18 24.2633 106.967 25.1842 108.02 25.2668C109.072 25.3493 109.993 24.5625 110.076 23.5097L110.649 16.4679C110.659 16.3479 110.657 16.2255 110.643 16.1017C110.523 15.0527 109.575 14.2996 108.527 14.4193L101.51 15.2468C100.461 15.3663 99.7083 16.314 99.8281 17.3628C99.9478 18.4118 100.895 19.1649 101.944 19.0451L103.668 18.8418L93.8074 29.0952L86.3236 25.4039C85.6351 25.0042 84.7409 25.0642 84.1069 25.6159L70.1755 37.7496C69.3786 38.4432 69.2948 39.6519 69.9884 40.449C70.6829 41.2458 71.8912 41.3294 72.6883 40.6357ZM7.05859 135.304H12.8312V118.893C12.8312 117.694 13.8036 116.721 15.003 116.721C16.2025 116.721 17.1749 117.694 17.1749 118.893V135.304H38.4278V118.893C38.4278 117.694 39.4003 116.721 40.5997 116.721C41.7991 116.721 42.7715 117.694 42.7715 118.893V135.304H48.5444C50.0397 135.304 51.2592 134.084 51.2592 132.589V113.995C51.2592 108.775 46.6098 105.81 41.3197 104.498C32.437 102.294 23.4318 102.145 14.2836 104.498C9.00595 105.854 4.34375 108.772 4.34375 113.995V132.589C4.34375 134.084 5.56326 135.304 7.05859 135.304Z" fill="#8DA1E6"/>
</g>
</svg>
