<svg width="78" height="79" viewBox="0 0 78 79" fill="none" xmlns="http://www.w3.org/2000/svg">
<g id="improvement 1">
<g id="Group">
<path id="Vector" d="M56.5185 32.0813V45.8322H62.0473V32.0813C62.0473 31.6638 62.3868 31.3242 62.8044 31.3242H64.5203L59.2806 24.373L54.0454 31.3242H55.7614C56.1789 31.3242 56.5185 31.6638 56.5185 32.0813Z" fill="#78CCED"/>
<path id="Vector_2" d="M62.8033 47.3506H55.7603H53.168V74.8846H65.3956V47.3506H62.8033Z" fill="#78CCED"/>
<path id="Vector_3" d="M34.2788 58.5781H46.5019V74.8847H34.2788V58.5781Z" fill="#78CCED"/>
<path id="Vector_4" d="M15.3843 66.373H27.6073V74.8842H15.3843V66.373Z" fill="#78CCED"/>
<path id="Vector_5" d="M38.11 52.0355C38.8257 51.4437 39.257 50.604 39.3213 49.6726L39.9361 40.6888C40.0095 39.6198 39.4038 38.6012 38.4311 38.1561L31.3974 34.9214L31.324 29.1999L34.0631 30.87C34.4715 31.1178 34.9166 31.283 35.3937 31.3518L41.6062 32.2557C42.5789 32.3979 43.5608 32.1088 44.3041 31.4665C45.0474 30.8241 45.4741 29.8927 45.4741 28.9108C45.4741 27.2545 44.2903 25.8505 42.6569 25.5752L36.0911 24.4648L29.9246 18.468C27.8599 16.4584 24.6664 16.229 22.331 17.9174L14.7008 23.4371C13.852 24.0519 13.3243 24.9971 13.2417 26.0432L12.6131 34.302C12.5535 35.0774 12.7875 35.8437 13.2647 36.4585C13.7464 37.0733 14.4301 37.4817 15.2009 37.6147C16.0589 37.7615 16.9444 37.5367 17.6373 37.0045C18.3255 36.4723 18.7614 35.6647 18.8348 34.7975L19.3854 28.1997L22.6889 25.878L22.5971 39.0325L18.0548 56.6605C17.6006 58.427 18.5457 60.2439 20.2571 60.8862C20.6609 61.0377 21.083 61.1111 21.5051 61.1111C22.0741 61.1111 22.643 60.9734 23.1569 60.7027C24.0516 60.2347 24.7077 59.3997 24.9601 58.4224L29.0711 42.1846L32.6591 43.6483L32.5903 49.4065C32.572 51.1362 33.8475 52.5907 35.5635 52.7926C36.4903 52.8981 37.3942 52.6274 38.11 52.0355Z" fill="#78CCED"/>
<path id="Vector_6" d="M27.584 15.1137C30.5342 15.1137 32.9384 12.7141 32.9384 9.75926C32.9384 6.80902 30.5388 4.40479 27.584 4.40479C24.6337 4.40479 22.2295 6.80443 22.2295 9.75926C22.2341 12.7141 24.6337 15.1137 27.584 15.1137Z" fill="#78CCED"/>
</g>
</g>
</svg>
