<svg width="60" height="61" viewBox="0 0 60 61" fill="none" xmlns="http://www.w3.org/2000/svg">
<g id="judgement 1" clip-path="url(#clip0_277_5605)">
<g id="Group">
<path id="Vector" d="M24.7258 35.2125C24.7258 34.2415 23.9387 33.4544 22.9677 33.4544H22.3536L16.3324 19.8623C15.1766 20.1662 14.0122 20.4325 12.8412 20.6628L18.5079 33.4544H6.32996L11.9199 20.8361C10.5591 21.0803 9.1901 21.2757 7.81524 21.4203L2.48409 33.4544H1.87003C0.899072 33.4544 0.111895 34.2415 0.111895 35.2125C0.0858745 41.2547 6.53145 45.3102 12.4189 45.1752C18.3051 45.3117 24.7536 41.2531 24.7258 35.2125Z" fill="#ECF9FF"/>
<path id="Vector_2" d="M58.1303 33.4544H57.5163L52.1851 21.4203C50.8103 21.2757 49.4413 21.0803 48.0805 20.8361L53.6704 33.4544H41.4926L47.1592 20.6628C45.9882 20.4326 44.8237 20.1662 43.668 19.8623L37.6466 33.4544H37.0326C36.0616 33.4544 35.2744 34.2415 35.2744 35.2125C35.2744 37.9586 36.6127 40.5118 39.0428 42.4019C43.5749 46.0739 51.5878 46.0742 56.1198 42.4018C58.5499 40.5118 59.8882 37.9586 59.8882 35.2125C59.8885 34.2415 59.1013 33.4544 58.1303 33.4544Z" fill="#ECF9FF"/>
<path id="Vector_3" d="M1.87155 18.2169C6.69659 18.2169 11.5005 17.562 16.15 16.2707C25.211 13.7537 34.7897 13.7537 43.8506 16.2707C48.5 17.5622 53.3038 18.2169 58.1288 18.2169C60.1231 18.2169 60.5767 15.4217 58.6848 14.791H58.6846C54.1213 13.2698 49.6755 11.3142 45.4706 8.9781L42.693 7.43504C39.3332 5.56849 35.5849 4.4659 31.7583 4.20628V2.39399C31.6718 0.0637541 28.3277 0.0655124 28.242 2.39399V4.20628C24.4152 4.4659 20.6671 5.56849 17.3073 7.43504L14.5295 8.9781C10.3247 11.3142 5.87894 13.2698 1.31551 14.791H1.3154C-0.576361 15.4217 -0.122761 18.2169 1.87155 18.2169Z" fill="#ECF9FF"/>
<path id="Vector_4" d="M37.0329 53.6143H22.9678C20.0548 53.6143 17.6934 55.9757 17.6934 58.8887C17.6934 59.8596 18.4805 60.6468 19.4515 60.6468H40.5492C41.5201 60.6468 42.3073 59.8596 42.3073 58.8887C42.3073 55.9757 39.9459 53.6143 37.0329 53.6143Z" fill="#ECF9FF"/>
<path id="Vector_5" d="M28.2422 50.0981H31.7585V17.9321C30.5877 17.8885 29.413 17.8885 28.2422 17.9321V50.0981Z" fill="#ECF9FF"/>
</g>
</g>
<defs>
<clipPath id="clip0_277_5605">
<rect width="60" height="60" fill="white" transform="translate(0 0.646973)"/>
</clipPath>
</defs>
</svg>
