<svg width="180" height="180" viewBox="0 0 180 180" fill="none" xmlns="http://www.w3.org/2000/svg">
<g id="machine-learning 3" clip-path="url(#clip0_266_3558)">
<path id="Vector" d="M67.827 60.1788C68.1011 60.6536 68.195 61.2395 68.0422 61.8095C67.8895 62.3795 67.5153 62.8399 67.0405 63.114C66.5657 63.3882 65.988 63.4843 65.4098 63.3293C64.8398 63.1766 64.3794 62.8024 64.1052 62.3275C63.8311 61.8527 63.7372 61.2668 63.8899 60.6969C64.0427 60.1269 64.4169 59.6664 64.8917 59.3923C65.3665 59.1182 65.9524 59.0243 66.5224 59.177C67.1006 59.332 67.5528 59.704 67.827 60.1788ZM55.1846 101.49C54.6146 101.338 54.0309 101.423 53.5561 101.697C53.0791 101.98 52.7071 102.432 52.5543 103.002C52.3994 103.58 52.4955 104.158 52.7674 104.641C53.0415 105.116 53.5042 105.482 54.0742 105.634C54.6524 105.789 55.2278 105.701 55.7027 105.427C56.1797 105.145 56.5517 104.693 56.7066 104.115C56.8594 103.545 56.7633 102.967 56.4914 102.484C56.2172 102.009 55.7628 101.645 55.1846 101.49ZM60.8546 80.3295C60.2846 80.1768 59.6987 80.2707 59.2239 80.5448C58.7491 80.819 58.3749 81.2794 58.2221 81.8494C58.0672 82.4276 58.1633 83.0052 58.4374 83.4801C58.7116 83.9549 59.172 84.3291 59.742 84.4818C60.3202 84.6368 60.8979 84.5407 61.3727 84.2666C61.8475 83.9924 62.2195 83.5402 62.3744 82.962C62.5272 82.392 62.4333 81.8061 62.1592 81.3313C61.885 80.8565 61.4328 80.4845 60.8546 80.3295ZM76.0364 104.976L67.1333 138.203C66.1483 141.879 63.7652 144.814 60.709 146.572C57.6506 148.338 53.9197 148.934 50.2438 147.949C46.5596 146.962 43.6325 144.581 41.8694 141.524C40.1015 138.474 39.5046 134.743 40.4903 131.064C41.2827 128.107 42.9636 125.644 45.1694 123.877C47.439 122.06 50.2579 120.967 53.2196 120.84C54.564 120.79 55.6008 119.663 55.5508 118.319C55.4903 116.981 54.3656 115.935 53.019 115.994C49.0069 116.164 45.1943 117.627 42.1333 120.086C40.8968 121.077 39.7886 122.217 38.8335 123.502C38.1116 123.541 37.3828 123.541 36.6452 123.485C35.5933 123.413 34.5114 123.232 33.4265 122.941C28.8832 121.724 25.2575 118.778 23.0806 115.007C20.8975 111.226 20.1577 106.619 21.3743 102.078C21.7005 100.861 22.1484 99.7183 22.7022 98.6537C23.2455 97.5952 23.8822 96.6178 24.6037 95.7427C24.6756 95.6617 24.7475 95.5806 24.8133 95.489C25.5992 94.3952 25.353 92.8802 24.2591 92.0942C21.7506 90.277 19.9256 87.2854 18.9995 83.6817C18.0661 80.017 18.0723 75.7424 19.2351 71.4028C20.3979 67.0633 22.5298 63.3582 25.1675 60.6623C27.7736 57.9962 30.847 56.3289 33.9288 56.0066L33.931 55.9984C33.9822 55.9944 34.0349 55.9849 34.0862 55.9809C35.4093 55.757 36.2961 54.5072 36.0749 53.1848C35.8789 52.0109 35.8032 50.7953 35.8602 49.5475C35.9129 48.3486 36.0965 47.1347 36.4226 45.9177C37.6399 41.3744 40.5858 37.7487 44.3647 35.5739C48.1375 33.3887 52.7531 32.6511 57.2937 33.8677C58.3786 34.1584 59.4059 34.5429 60.353 35.0062C61.0175 35.3348 61.6519 35.6877 62.2565 36.0858C62.4413 37.6759 62.8288 39.2258 63.4063 40.6938C64.828 44.3536 67.3959 47.5354 70.7853 49.689C71.9245 50.4045 73.4197 50.0673 74.1427 48.933C74.856 47.802 74.521 46.2986 73.3845 45.5838C70.8832 43.9928 68.9858 41.6458 67.9292 38.9368C66.9023 36.3037 66.68 33.3224 67.4702 30.3734L67.4724 30.3651C68.4574 26.6892 70.8383 23.7621 73.8967 21.9963C76.9551 20.2305 80.6778 19.6314 84.362 20.6186C88.0379 21.6036 90.9733 23.9867 92.7363 27.0443C94.5021 30.1027 95.099 33.8337 94.114 37.5096L85.2109 70.7363L79.4341 69.1884L80.5149 65.1545C80.8624 63.8576 80.0897 62.5231 78.7955 62.1764L72.9581 60.6122C72.8625 59.5921 72.5477 58.6194 72.043 57.7493C71.146 56.1957 69.6555 54.9847 67.7831 54.483C65.919 53.9835 64.0199 54.2863 62.4663 55.1832C60.9126 56.0802 59.6934 57.5685 59.1917 59.4409C58.69 61.3133 59.0017 63.2118 59.8987 64.7655C60.7957 66.3191 62.2862 67.5301 64.1531 68.0303C66.0255 68.532 67.9218 68.2286 69.4755 67.3316C70.3448 66.8296 71.1066 66.1455 71.6994 65.3097L75.1881 66.2445L74.1065 70.2812C73.759 71.5781 74.5317 72.9125 75.8259 73.2593L83.9515 75.4365L81.2534 85.5062L67.2903 81.7648C67.1933 80.7501 66.8799 79.7719 66.373 78.9101C65.4782 77.3482 63.9877 76.1372 62.1153 75.6355C60.2512 75.136 58.3521 75.4388 56.7963 76.344C55.2426 77.241 54.0234 78.7293 53.5232 80.5962C53.0215 82.4686 53.3332 84.3671 54.2302 85.9208C55.1272 87.4744 56.6177 88.6854 58.4846 89.1856C60.357 89.6873 62.2533 89.3838 63.8069 88.4868C64.6763 87.9849 65.438 87.3007 66.0309 86.465L79.9939 90.2064L77.2936 100.284L69.168 98.107C67.871 97.7595 66.5388 98.524 66.1899 99.8264L65.1105 103.855L61.6217 102.92C61.524 101.908 61.2113 100.927 60.7045 100.065C59.8075 98.5117 58.3192 97.2925 56.4468 96.7908C54.5826 96.2913 52.6814 96.6023 51.1277 97.4993C49.5741 98.3963 48.3549 99.8846 47.8546 101.751C47.3529 103.624 47.6646 105.522 48.5616 107.076C49.4586 108.63 50.9492 109.841 52.816 110.341C54.6884 110.843 56.5847 110.539 58.1384 109.642C59.0077 109.14 59.7695 108.456 60.3601 107.629L66.1976 109.193C67.4945 109.54 68.8289 108.767 69.1779 107.465L70.2573 103.437L76.0342 104.985L76.0364 104.976ZM41.4037 77.3429C42.1525 74.5481 43.5188 72.1695 45.2095 70.4416C46.8355 68.779 48.7395 67.7309 50.6388 67.5375C51.9708 67.4015 52.943 66.2071 52.8078 64.8723C52.6719 63.5403 51.4775 62.568 50.1427 62.7033C47.0901 63.0156 44.1436 64.5841 41.7324 67.0516C39.4739 69.3563 37.6714 72.4708 36.7027 76.0862C35.7325 79.7071 35.739 83.3064 36.5412 86.4253C37.3914 89.7726 39.1687 92.6009 41.6506 94.3962C42.7362 95.18 44.2595 94.9359 45.0432 93.8503C45.8269 92.7647 45.5829 91.2415 44.4973 90.4577C42.9492 89.3405 41.8236 87.4836 41.2475 85.228C40.646 82.88 40.6548 80.1377 41.4037 77.3429ZM161.722 102.83C161.645 102.641 161.499 102.469 161.303 102.334L153.577 97.3184C152.723 96.7619 152.049 96.0293 151.585 95.1703C151.129 94.319 150.881 93.3586 150.889 92.3394C150.903 89.8849 150.744 87.4489 150.428 85.0386C150.106 82.6179 149.623 80.2131 148.976 77.847C148.709 76.8724 148.692 75.8791 148.924 74.9232C149.147 73.9707 149.605 73.0988 150.286 72.3427L156.455 65.4874C156.622 65.3049 156.708 65.1037 156.739 64.9023C156.761 64.6987 156.709 64.4842 156.581 64.267L150.685 54.0549C150.564 53.8454 150.398 53.6946 150.211 53.6092C150.032 53.5287 149.804 53.509 149.563 53.5623L140.551 55.4741C139.559 55.6863 138.564 55.644 137.625 55.3689C136.689 55.0855 135.83 54.5781 135.121 53.8539C133.396 52.1107 131.563 50.4922 129.625 49.011C127.698 47.5237 125.657 46.1741 123.527 44.951C122.641 44.4452 121.93 43.7618 121.423 42.9325C120.911 42.1017 120.609 41.1589 120.557 40.1416L120.078 30.9354C120.065 30.6987 119.988 30.4921 119.856 30.3329C119.725 30.1737 119.54 30.0475 119.306 29.9848L115.958 29.0876L106.607 63.9857C113.489 66.4318 118.991 71.2202 122.427 77.1846C126.257 83.8064 127.555 91.8923 125.42 99.8637C123.282 107.841 118.117 114.186 111.489 118.008C105.53 121.455 98.3713 122.851 91.1861 121.537L81.8374 156.427L85.1857 157.324C85.4198 157.387 85.6405 157.378 85.8339 157.306C86.0301 157.234 86.2027 157.086 86.3299 156.887L91.3451 149.162C91.9016 148.307 92.6342 147.633 93.4932 147.17C94.3445 146.713 95.3042 146.468 96.3241 146.473C98.7786 146.488 101.223 146.331 103.633 146.015C106.054 145.692 108.451 145.204 110.817 144.56C111.791 144.293 112.79 144.277 113.74 144.508C114.693 144.731 115.573 145.191 116.329 145.872L123.176 152.039C123.359 152.206 123.566 152.303 123.761 152.323C123.965 152.345 124.188 152.295 124.397 152.165L134.609 146.269C134.824 146.15 134.977 145.985 135.06 145.806C135.138 145.617 135.163 145.391 135.109 145.149L133.192 136.136C132.98 135.144 133.022 134.149 133.306 133.212C133.584 132.275 134.096 131.418 134.812 130.706C136.556 128.981 138.174 127.148 139.664 125.212C141.143 123.283 142.5 121.245 143.713 119.12C144.221 118.226 144.913 117.517 145.734 117.008C146.565 116.496 147.513 116.204 148.533 116.144L157.731 115.663C157.967 115.653 158.182 115.575 158.342 115.443C158.504 115.31 158.619 115.125 158.681 114.891L161.733 103.503C161.803 103.253 161.796 103.027 161.722 102.83ZM102.225 80.3298L99.5265 90.3995L81.2541 85.5034L79.9954 90.2009L98.2678 95.097L95.5674 105.175L77.2951 100.279L76.0364 104.976L94.3087 109.872L92.4517 116.803C98.3355 117.786 104.171 116.614 109.063 113.79C114.606 110.583 118.934 105.268 120.722 98.5933C122.511 91.9188 121.42 85.1515 118.221 79.6108C115.399 74.723 110.933 70.7818 105.343 68.6907L103.484 75.6296L85.2117 70.7335L83.953 75.431L102.225 80.3271L102.225 80.3298Z" fill="#8DCBE6"/>
</g>
<defs>
<clipPath id="clip0_266_3558">
<rect width="145.953" height="145.953" fill="white" transform="translate(38.1227 0.912598) rotate(15)"/>
</clipPath>
</defs>
</svg>
