<svg width="166" height="166" viewBox="0 0 166 166" fill="none" xmlns="http://www.w3.org/2000/svg">
<g id="mobile-development 2" clip-path="url(#clip0_266_3503)">
<g id="_x30_3">
<path id="Vector" d="M72.1985 24.4819L23.391 37.5599C16.652 39.3656 12.6529 46.2923 14.4586 53.0312L38.4348 142.512C40.2405 149.251 47.1672 153.25 53.9061 151.444L102.714 138.366C109.453 136.56 113.452 129.634 111.646 122.895L87.6698 33.4143C85.8641 26.6754 78.9374 22.6762 72.1985 24.4819ZM107.034 121.951C108.536 127.557 105.199 133.341 99.5902 134.844L54.8499 146.832C49.2435 148.334 43.4594 144.995 41.9571 139.388L19.0708 53.975C17.5685 48.3686 20.908 42.5845 26.5144 41.0822L71.2546 29.0941C76.8631 27.5914 82.6452 30.9314 84.1474 36.5378L107.034 121.951Z" fill="#B3CCF0"/>
<path id="Vector_2" d="M72.3443 33.1616L58.1088 36.976C59.3126 41.4685 56.6464 46.0864 52.1539 47.2902C47.6613 48.494 43.0434 45.8278 41.8396 41.3353L27.6041 45.1497C24.2399 46.0511 22.2365 49.5211 23.1379 52.8854L46.0243 138.298C46.9257 141.663 50.3957 143.666 53.76 142.765L98.5002 130.777C101.864 129.875 103.868 126.405 102.966 123.041L80.08 37.6278C79.1785 34.2635 75.7086 32.2601 72.3443 33.1616ZM61.6939 101.944C62.7384 102.458 63.1681 103.72 62.6555 104.762C62.3758 105.33 61.8765 105.715 61.3105 105.867C60.8339 105.995 60.3131 105.958 59.8373 105.723L39.7538 95.847C39.2071 95.5784 38.8054 95.088 38.6484 94.5021C38.4914 93.9162 38.5941 93.2906 38.9332 92.7847L51.388 74.1898C52.0355 73.2224 53.3403 72.96 54.3093 73.6135C55.2743 74.2596 55.5332 75.5674 54.8856 76.5349L43.7702 93.1297L61.6939 101.944ZM87.1711 83.1416L74.7163 101.736C74.4215 102.177 73.989 102.47 73.5124 102.598C72.9464 102.749 72.3216 102.665 71.7949 102.313C70.83 101.667 70.5711 100.359 71.2186 99.3914L82.334 82.7966L64.4104 73.9827C63.3659 73.4686 62.9362 72.2066 63.4488 71.1646C63.9613 70.1141 65.2224 69.6889 66.267 70.203L86.3505 80.0792C86.8972 80.3478 87.2989 80.8383 87.4559 81.4242C87.6129 82.01 87.5102 82.6357 87.1711 83.1416Z" fill="#B3CCF0"/>
<path id="Vector_3" d="M140.329 75.5264L133.731 73.8289C133.548 72.256 133.258 70.7288 132.864 69.2572C132.469 67.7856 131.957 66.3179 131.329 64.8642L136.194 60.0953C137.003 59.3016 137.458 58.2177 137.457 57.0876C137.456 55.9555 137.004 54.8719 136.196 54.0795L124.095 42.2217C122.461 40.6203 119.846 40.6144 118.199 42.2221L113.25 47.0753C110.285 45.8434 107.146 45.0284 103.965 44.659L102.242 38.2284C101.64 35.9823 99.333 34.6485 97.0848 35.2509L92.8269 36.3918L99.3659 60.7956C108.351 58.388 117.587 63.7201 119.994 72.7055C122.402 81.6908 117.07 90.9263 108.084 93.3339L114.623 117.738L118.881 116.597C121.13 115.994 122.461 113.686 121.859 111.44L120.136 105.011C122.706 103.099 125.016 100.821 126.969 98.2739L133.681 100.002C135.912 100.573 138.174 99.2604 138.788 97.0547L143.338 80.7354C143.642 79.645 143.492 78.4805 142.926 77.4995C142.362 76.5205 141.426 75.8091 140.329 75.5264Z" fill="#B3CCF0"/>
</g>
</g>
<defs>
<clipPath id="clip0_266_3503">
<rect width="134.745" height="134.745" fill="white" transform="translate(0.874878 34.8745) rotate(-15)"/>
</clipPath>
</defs>
</svg>
