<svg width="74" height="75" viewBox="0 0 74 75" fill="none" xmlns="http://www.w3.org/2000/svg">
<g id="respect 1">
<path id="Vector" fill-rule="evenodd" clip-rule="evenodd" d="M11.7824 19.5306C13.0446 17.5104 14.7976 15.4906 15.0533 14.4379L17.0411 6.2557C17.5516 4.1544 19.6884 2.85282 21.7897 3.36331C23.8909 3.8738 25.1924 6.01073 24.6819 8.11187L22.5771 17.0369C22.4556 17.5514 22.6133 18.0545 23.0062 18.4081C23.3993 18.7617 23.6611 18.706 26.3271 18.7241L35.9996 18.711C38.0429 18.89 38.7449 20.0268 38.7367 21.6433C38.7285 23.2602 37.3643 24.7558 35.1196 24.5665C36.6233 24.8886 37.5452 25.9015 37.537 27.5181C37.5288 29.1349 36.1646 30.4522 33.641 30.4428C34.449 30.7734 35.7877 31.7794 35.7795 33.3959C35.7713 35.0127 34.4071 36.33 31.9206 36.3208C32.6861 36.7466 34.1044 37.6577 34.0962 39.2742C34.088 40.891 32.7238 42.2084 31.1437 42.2429L14.7531 42.2856C13.8058 42.2856 12.9898 41.7035 12.65 40.9L12.6348 21.9094C12.6342 21.008 12.3123 20.1801 11.7824 19.5306ZM65.1565 71.9943L69.67 72.0054C70.6492 72.0079 71.45 71.2117 71.4535 70.2324C71.4746 64.1123 71.4959 57.992 71.517 51.8719C71.5204 50.8823 70.7319 50.0892 69.7423 50.0867L65.2288 50.0757C64.2496 50.0732 63.4488 50.8693 63.4453 51.8487C63.4242 57.9688 63.4029 64.089 63.3818 70.2091C63.3783 71.1989 64.1669 71.9919 65.1565 71.9943ZM62.2864 49.4626C61.0242 47.4425 59.2712 45.4225 59.0154 44.3699L57.0276 36.1877C56.5171 34.0864 54.3802 32.7849 52.2791 33.2954C50.1778 33.8058 48.8763 35.9426 49.3868 38.0439L51.4917 46.9689C51.6131 47.4834 51.4555 47.9866 51.0625 48.3402C50.6696 48.6936 50.4078 48.638 47.7417 48.6561L38.0692 48.6431C36.0259 48.8221 35.3239 49.9589 35.3321 51.5754C35.3403 53.1922 36.7045 54.6879 38.9492 54.4985C37.4454 54.8206 36.5236 55.8336 36.5318 57.4501C36.54 59.067 37.9042 60.3843 40.4278 60.3748C39.6197 60.7054 38.2811 61.7114 38.2891 63.328C38.2973 64.9448 39.6615 66.262 42.148 66.2528C41.3825 66.6787 39.9643 67.5896 39.9725 69.2061C39.9806 70.8231 41.3449 72.1403 42.9249 72.1749L59.3156 72.2179C60.2627 72.2179 61.0788 71.6359 61.4186 70.8323L61.4338 51.8418C61.4347 50.94 61.7565 50.1123 62.2864 49.4626ZM8.91226 42.0623L4.39875 42.0734C3.41959 42.0758 2.61872 41.2797 2.61528 40.3004C2.59415 34.1803 2.57289 28.06 2.55177 21.9397C2.54832 20.9499 3.33683 20.157 4.32648 20.1545L8.83999 20.1435C9.81915 20.141 10.62 20.9372 10.6235 21.9165C10.6446 28.0366 10.6658 34.1568 10.687 40.2771C10.6904 41.2668 9.90191 42.0599 8.91226 42.0623Z" fill="#EBF3FF"/>
</g>
</svg>
