<svg width="146" height="146" viewBox="0 0 146 146" fill="none" xmlns="http://www.w3.org/2000/svg">
<g id="software 3" clip-path="url(#clip0_273_3735)">
<path id="Vector" d="M119.621 81.9785C121.395 83.7526 122.498 86.2091 122.498 88.9187C122.498 91.6339 121.395 94.0847 119.621 95.8645C117.841 97.6387 115.39 98.7333 112.681 98.7333C109.966 98.7333 107.515 97.6387 105.735 95.8645C103.961 94.0847 102.866 91.6339 102.866 88.9187C102.866 86.212 103.964 83.7526 105.735 81.9785C107.515 80.2044 109.966 79.1012 112.681 79.1012C115.39 79.1012 117.841 80.2044 119.621 81.9785ZM146.008 86.8545V90.9885C146.008 92.2225 145.244 93.2773 144.066 93.6554L141.132 94.605C140.214 94.9036 139.56 95.5802 139.304 96.5071C138.716 98.5713 137.894 100.536 136.87 102.375C136.404 103.214 136.387 104.155 136.822 105.011L138.224 107.766C138.787 108.861 138.579 110.143 137.709 111.021L134.784 113.947C133.914 114.817 132.631 115.019 131.528 114.462L128.773 113.06C127.92 112.617 126.976 112.634 126.137 113.108C124.301 114.132 122.333 114.954 120.269 115.534C119.342 115.801 118.666 116.452 118.376 117.37L117.417 120.304C117.039 121.482 115.99 122.238 114.751 122.238H110.617C109.383 122.238 108.328 121.479 107.95 120.304L107 117.37C106.702 116.452 106.025 115.798 105.098 115.534C103.034 114.954 101.069 114.132 99.2297 113.108C98.391 112.642 97.4499 112.617 96.5941 113.06L93.8391 114.462C92.7416 115.019 91.4622 114.817 90.5836 113.947L87.658 111.021C86.788 110.143 86.5861 108.861 87.1434 107.766L88.5451 105.011C88.9886 104.158 88.9715 103.214 88.4967 102.375C87.4732 100.539 86.6515 98.5713 86.0715 96.5071C85.8043 95.5802 85.1532 94.9036 84.2348 94.605L81.3007 93.6554C80.1236 93.2773 79.3673 92.2196 79.3673 90.9885V86.8545C79.3673 85.6121 80.1236 84.5658 81.3007 84.1876L84.2434 83.2295C85.1532 82.931 85.8071 82.2628 86.0715 81.3359C86.66 79.2718 87.4732 77.3072 88.4967 75.4676C88.9715 74.6289 88.9886 73.6878 88.5451 72.832L87.1434 70.077C86.5861 68.9738 86.788 67.6916 87.658 66.8216L90.5836 63.8959C91.4622 63.0259 92.7444 62.8155 93.8391 63.3813L96.5941 64.783C97.447 65.218 98.391 65.201 99.2297 64.7347C101.066 63.7111 103.034 62.8895 105.098 62.3009C106.025 62.0422 106.702 61.3911 107 60.4728L107.95 57.5386C108.328 56.3615 109.386 55.5967 110.617 55.5967H114.751C115.993 55.5967 117.039 56.3615 117.417 57.5386L118.376 60.4728C118.666 61.3911 119.342 62.045 120.269 62.3009C122.333 62.8895 124.298 63.7111 126.137 64.7347C126.976 65.201 127.917 65.218 128.773 64.783L131.528 63.3813C132.631 62.8184 133.914 63.0259 134.784 63.8959L137.709 66.8216C138.579 67.6916 138.79 68.9738 138.224 70.077L136.822 72.832C136.387 73.685 136.404 74.6289 136.87 75.4676C137.894 77.3043 138.716 79.2718 139.304 81.3359C139.563 82.2628 140.214 82.9395 141.132 83.2295L144.066 84.1876C145.244 84.5658 146.008 85.6121 146.008 86.8545ZM127.189 88.9187C127.189 84.9127 125.569 81.2876 122.942 78.6605C120.315 76.0334 116.687 74.4043 112.681 74.4043C108.666 74.4043 105.041 76.0334 102.414 78.6605C99.787 81.2876 98.1664 84.9155 98.1664 88.9187C98.1664 92.9332 99.787 96.5583 102.414 99.1854C105.041 101.812 108.669 103.433 112.681 103.433C116.687 103.433 120.312 101.812 122.942 99.1854C125.569 96.5583 127.189 92.9304 127.189 88.9187ZM81.1301 119.963L70.8691 119.963L67.7416 111.243H45.3601L42.2412 119.963H31.9802C30.6837 119.963 29.626 121.012 29.626 122.309C29.626 123.605 30.6809 124.663 31.9802 124.663L81.1272 124.663C82.4237 124.663 83.4814 123.608 83.4814 122.309C83.4842 121.01 82.4294 119.963 81.1301 119.963ZM74.7642 85.5637L0.432373 85.5637L0.432373 28.6094C0.432373 24.5635 3.74467 21.2598 7.7905 21.2598L105.325 21.2598C109.371 21.2598 112.684 24.5635 112.684 28.6094V50.8941H110.614C107.341 50.8941 104.49 52.9725 103.48 56.0858L102.826 58.076C101.109 58.6247 99.4401 59.3184 97.8365 60.1486L95.9657 59.1962C93.0572 57.712 89.5658 58.2608 87.2543 60.5751L84.3287 63.5007C82.0143 65.8066 81.4684 69.2951 82.9497 72.2122L83.8993 74.083C83.0777 75.6866 82.3839 77.3555 81.8352 79.0728L79.8364 79.7182C77.1496 80.591 75.2305 82.8485 74.7642 85.5637ZM29.9928 54.5846L45.5478 45.8958C46.6765 45.2675 47.086 43.8402 46.4576 42.7115C45.8293 41.5827 44.402 41.1733 43.2733 41.8017L24.0762 52.5204C23.698 52.7308 23.3682 53.0436 23.1408 53.4473C22.5124 54.576 22.9219 56.0033 24.0506 56.6316L43.2733 67.3675C44.402 67.9958 45.8293 67.5921 46.4576 66.4576C47.086 65.3289 46.6765 63.9016 45.5478 63.2733L29.9928 54.5846ZM61.0943 34.7989C59.829 34.5089 58.5724 35.2993 58.2824 36.5645L50.2646 71.5668C49.9746 72.8235 50.765 74.0802 52.0217 74.3702C53.2869 74.6602 54.5436 73.8698 54.8336 72.6046L62.8513 37.6108C63.1413 36.3456 62.3509 35.0889 61.0943 34.7989ZM69.8399 67.3675L89.0625 56.6316C90.1913 56.0033 90.6007 54.576 89.9723 53.4473C89.7477 53.0436 89.4151 52.7308 89.0369 52.5204L69.8399 41.8017C68.7111 41.1733 67.2838 41.5827 66.6555 42.7115C66.0272 43.8402 66.4366 45.2675 67.5653 45.8958L83.1203 54.5846L67.5653 63.2733C66.4366 63.9016 66.0272 65.3289 66.6555 66.4576C67.2838 67.5921 68.7111 67.9958 69.8399 67.3675ZM79.8421 98.122C76.7317 97.1155 74.659 94.261 74.659 90.9885V90.2635L0.432373 90.2635L0.432373 99.1939C0.432373 103.231 3.74467 106.543 7.7905 106.543L82.5574 106.543C82.6711 106.236 82.799 105.932 82.9526 105.634L83.9022 103.763C83.0805 102.159 82.3868 100.49 81.8295 98.7731L79.8421 98.122Z" fill="#8DA1E6"/>
</g>
<defs>
<clipPath id="clip0_273_3735">
<rect width="145.57" height="145.57" fill="white" transform="translate(0.435303 0.174805)"/>
</clipPath>
</defs>
</svg>
