<svg width="169" height="170" viewBox="0 0 169 170" fill="none" xmlns="http://www.w3.org/2000/svg">
<g id="web-coding 3" clip-path="url(#clip0_273_3776)">
<g id="Group">
<g id="Page-1_36_">
<g id="_x30_37---Search-Code-for-Bugs">
<path id="Path_188_" fill-rule="evenodd" clip-rule="evenodd" d="M98.167 88.3915L87.699 89.9513C86.2537 90.1667 85.2566 91.5129 85.472 92.9583L87.0319 103.426C87.678 107.762 91.7167 110.754 96.0528 110.107C100.389 109.461 103.38 105.423 102.734 101.087L101.174 90.6185C100.959 89.1731 99.6122 88.1761 98.167 88.3915Z" fill="#A1BEC9"/>
<path id="Shape_94_" d="M46.2171 98.8084C43.1548 78.4516 53.5184 58.4312 71.9081 49.179C90.2978 39.9268 112.551 43.5374 127.071 58.1291C141.592 72.7208 145.095 94.991 135.753 113.336L142.281 118.17C142.698 117.983 143.138 117.851 143.59 117.777C144.831 117.596 146.097 117.868 147.155 118.544L148.398 118.358C149.741 118.058 150.602 116.745 150.342 115.394L136.693 23.7989L3.22677 43.6872L16.8756 135.282C17.0206 136.648 18.2242 137.653 19.5946 137.552L65.8708 130.656C65.5724 130.449 65.2792 130.276 64.9797 130.061C54.8025 122.568 48.046 111.314 46.2171 98.8084ZM23.3946 58.6237L16.7135 67.6446C15.8343 68.7894 14.2002 69.0183 13.0402 68.1595C11.8802 67.3003 11.623 65.6704 12.4617 64.4957L17.5682 57.6008L10.6733 52.4943C9.5286 51.6151 9.29964 49.9809 10.1585 48.821C11.0174 47.661 12.6476 47.4038 13.8223 48.2425L22.8432 54.9236C24.0171 55.793 24.2639 57.4496 23.3946 58.6237ZM27.6725 64.1202C27.4571 62.6748 28.4541 61.3286 29.8995 61.1132L40.3675 59.5534C41.8129 59.338 43.1591 60.335 43.3745 61.7804C43.5899 63.2258 42.5928 64.572 41.1475 64.7874L30.6795 66.3472C29.2341 66.5626 27.8879 65.5656 27.6725 64.1202Z" fill="#A1BEC9"/>
<path id="Path_187_" fill-rule="evenodd" clip-rule="evenodd" d="M91.7629 81.3205C90.3175 81.5359 89.3205 82.8821 89.5358 84.3275L94.7698 83.5475C94.5545 82.1022 93.2083 81.1051 91.7629 81.3205Z" fill="#A1BEC9"/>
<path id="Shape_93_" d="M133.964 5.47937C133.819 4.11275 132.615 3.10802 131.245 3.20943L2.43655 22.4036C1.09588 22.7062 0.237708 24.0181 0.497478 25.3676L2.44732 38.4527L135.914 18.5644L133.964 5.47937ZM9.51815 32.0488C8.07278 32.2642 6.72656 31.2671 6.51118 29.8217C6.2958 28.3764 7.29285 27.0302 8.73822 26.8148C10.1836 26.5994 11.5298 27.5964 11.7452 29.0418C11.9606 30.4872 10.9635 31.8334 9.51815 32.0488ZM19.9862 30.4889C18.5408 30.7043 17.1946 29.7072 16.9792 28.2619C16.7638 26.8165 17.7609 25.4703 19.2062 25.2549C20.6516 25.0395 21.9978 26.0366 22.2132 27.4819C22.4286 28.9273 21.4315 30.2735 19.9862 30.4889ZM30.4542 28.929C29.0088 29.1444 27.6626 28.1474 27.4472 26.702C27.2318 25.2566 28.2289 23.9104 29.6742 23.695C31.1196 23.4796 32.4658 24.4767 32.6812 25.9221C32.8966 27.3674 31.8996 28.7137 30.4542 28.929ZM131.474 11.9843C132.252 12.5399 132.67 13.4724 132.567 14.4231C132.464 15.3738 131.856 16.1949 130.976 16.5708C130.097 16.9466 129.084 16.8188 128.325 16.2364L127.444 15.5839L126.792 16.4649C125.912 17.6096 124.278 17.8386 123.118 16.9797C121.958 16.1206 121.701 14.4906 122.54 13.3159L123.192 12.435L122.311 11.7825C121.167 10.9034 120.938 9.2692 121.797 8.10924C122.656 6.94924 124.286 6.69205 125.46 7.53074L126.341 8.18319L126.994 7.30225C127.549 6.52399 128.482 6.10621 129.432 6.20935C130.383 6.31248 131.204 6.9206 131.58 7.79994C131.956 8.67928 131.828 9.69283 131.246 10.4514L130.593 11.3324L131.474 11.9843Z" fill="#A1BEC9"/>
<path id="Path_186_" fill-rule="evenodd" clip-rule="evenodd" d="M165.632 138.758L144.37 123.011L138.072 131.514L159.334 147.262C161.699 148.931 164.959 148.445 166.735 146.159C168.473 143.811 167.98 140.498 165.632 138.758Z" fill="#A1BEC9"/>
<path id="Path_185_" fill-rule="evenodd" clip-rule="evenodd" d="M133.064 117.93C132.577 118.666 132.121 119.408 131.592 120.134C131.064 120.861 130.459 121.504 129.907 122.183L135.386 126.243L138.54 121.986L133.064 117.93Z" fill="#A1BEC9"/>
<path id="Shape_92_" d="M118.517 57.7683C102.286 45.749 79.8255 46.8687 64.8705 60.4426C49.9155 74.0165 46.6318 96.2639 57.0271 113.579C67.4224 130.895 88.6018 138.456 107.613 131.639C126.624 124.822 138.172 105.525 135.194 85.5492C133.553 74.4385 127.551 64.4404 118.517 57.7683ZM123.092 113.836C112.575 128.038 93.4902 132.833 77.5095 125.289C61.5289 117.745 53.1029 99.9623 57.3843 82.8168C61.6657 65.6713 77.4624 53.9381 95.1137 54.7923C112.765 55.6465 127.355 68.8506 129.96 86.3292C131.423 96.0468 128.95 105.946 123.092 113.836Z" fill="#A1BEC9"/>
<path id="Shape_91_" d="M112.219 66.2747C100.046 57.26 83.2005 58.0992 71.9841 68.2794C60.7677 78.4596 58.3045 95.1456 66.1011 108.132C73.8976 121.119 89.7823 126.79 104.041 121.677C118.299 116.564 126.96 102.091 124.727 87.1093C123.496 78.7768 118.994 71.2788 112.219 66.2747ZM72.0634 76.0412C76.2261 70.3882 82.4771 66.6355 89.4233 65.6191C90.8686 65.4037 92.2148 66.4008 92.4302 67.8462C92.6456 69.2915 91.6486 70.6377 90.2032 70.8531C84.6458 71.6652 79.6446 74.6675 76.3152 79.1904C75.436 80.3352 73.8019 80.5642 72.6419 79.7053C71.4819 78.8459 71.2244 77.2157 72.0634 76.0412ZM112.812 96.9099L107.578 97.6899L107.806 99.2235L112.939 103.025C113.717 103.581 114.135 104.513 114.032 105.464C113.929 106.415 113.321 107.236 112.441 107.612C111.562 107.987 110.548 107.86 109.79 107.277L107.646 105.689C106.287 110.774 102.038 114.566 96.8324 115.342C91.6266 116.118 86.4571 113.729 83.6744 109.261L82.0865 111.405C81.2073 112.55 79.5732 112.779 78.4132 111.92C77.2532 111.061 76.996 109.431 77.8347 108.256L81.6363 103.123L81.4078 101.59L76.1738 102.37C74.7284 102.585 73.3822 101.588 73.1668 100.143C72.9514 98.6973 73.9485 97.3511 75.3938 97.1357L80.6278 96.3558L80.3993 94.8221L75.2663 91.0205C74.1216 90.1413 73.8926 88.5072 74.7515 87.3472C75.6104 86.1873 77.2406 85.93 78.4153 86.7687L81.1457 88.7909C81.8853 87.4311 83.0075 86.3179 84.3738 85.5894L84.302 85.1078C83.6559 80.7719 86.647 76.733 90.9831 76.0869C95.319 75.4408 99.3579 78.4319 100.004 82.768L100.076 83.2496C101.594 83.5475 102.992 84.2841 104.097 85.3685L106.119 82.6381C106.998 81.4933 108.632 81.2643 109.792 82.1232C110.952 82.9824 111.209 84.6123 110.371 85.787L106.569 90.9224L106.798 92.4561L112.032 91.6761C113.477 91.4608 114.823 92.4578 115.039 93.9032C115.254 95.3483 114.257 96.6946 112.812 96.9099Z" fill="#A1BEC9"/>
</g>
</g>
</g>
</g>
<defs>
<clipPath id="clip0_273_3776">
<rect width="148.171" height="148.171" fill="white" transform="translate(0.10083 22.7256) rotate(-8.47546)"/>
</clipPath>
</defs>
</svg>
